<svg width="20" height="20" viewBox="0 0 20 20" fill="none" xmlns="http://www.w3.org/2000/svg">
<path d="M5.5863 15.3491C5.32819 15.6082 4.90877 15.6086 4.65016 15.35C4.39155 15.0914 4.39196 14.672 4.65107 14.4139L14.6928 4.41113L15.589 5.30742L5.5863 15.3491Z" fill="#424242"/>
<path d="M15.8326 12.1072C15.8326 12.4898 15.5225 12.7998 15.14 12.7998C14.7575 12.7998 14.4474 12.4898 14.4474 12.1072V6.75971C14.4474 6.09254 13.9065 5.55169 13.2393 5.55169H7.89181C7.5093 5.55169 7.19922 5.2416 7.19922 4.8591C7.19922 4.47659 7.5093 4.1665 7.89181 4.1665H14.3937C15.1883 4.1665 15.8326 4.81072 15.8326 5.60539V12.1072Z" fill="#424242"/>
</svg>
