<svg width="41" height="42" viewBox="0 0 41 42" fill="none" xmlns="http://www.w3.org/2000/svg">
<path fill-rule="evenodd" clip-rule="evenodd" d="M2.88734 5.14685H3.70639C4.6133 5.14685 5.06788 4.74459 5.06788 3.9395C5.06788 3.13441 4.6133 2.73272 3.70639 2.73272H2.88734V5.14685ZM2.88734 10.3882H0.416016V0.703279H4.34916C5.41648 0.703279 6.23383 0.985429 6.80064 1.54973C7.36746 2.11516 7.65144 2.91289 7.65144 3.9395C7.65144 4.96669 7.36803 5.76384 6.80064 6.32871C6.23383 6.89414 5.41648 7.17629 4.34916 7.17629H2.88734V10.3887V10.3882ZM18.2656 5.03127H18.7321C19.2196 5.03127 19.5937 4.92873 19.8539 4.72306C20.1146 4.51797 20.2444 4.22165 20.2444 3.83752C20.2444 3.45169 20.114 3.15594 19.8539 2.95084C19.5931 2.74518 19.219 2.64207 18.7316 2.64207H18.2656V5.03184V5.03127ZM23.698 10.3882H20.6219L18.2656 6.66298V10.3882H15.7955V0.702712H19.639C20.1696 0.702712 20.631 0.782032 21.0261 0.940103C21.4206 1.09874 21.7459 1.31517 22.0027 1.58939C22.2588 1.86301 22.4561 2.18617 22.5825 2.53895C22.7129 2.89929 22.7775 3.28455 22.7775 3.69588C22.7775 4.43241 22.6035 5.02901 22.2555 5.48736C21.9057 5.94628 21.3916 6.25619 20.7103 6.41936L23.698 10.3882V10.3882ZM32.8561 5.54515C32.8561 5.93041 32.9269 6.28622 33.0709 6.61142C33.2075 6.92868 33.404 7.21664 33.6496 7.45957C33.8934 7.69923 34.1773 7.88563 34.501 8.01821C34.8241 8.15078 35.167 8.21651 35.5281 8.21651C36.231 8.21994 36.9074 7.94801 37.4122 7.45901C37.6611 7.21742 37.8604 6.92949 37.9988 6.61142C38.1405 6.28622 38.2131 5.93041 38.2131 5.54515C38.2165 5.17871 38.1435 4.81558 37.9988 4.47887C37.7202 3.83939 37.2019 3.33455 36.5551 3.07266C36.2291 2.93976 35.8801 2.87238 35.5281 2.87436C35.167 2.87436 34.8246 2.94008 34.501 3.07266C34.1834 3.20141 33.8941 3.39121 33.6496 3.63129C33.4059 3.87095 33.2132 4.15423 33.0709 4.47887C32.9253 4.81531 32.8521 5.1786 32.8561 5.54515V5.54515ZM30.2725 5.54515C30.2725 4.82561 30.4029 4.15593 30.6631 3.53497C30.9146 2.92772 31.2828 2.37566 31.7468 1.91006C32.2204 1.44015 32.7841 1.07089 33.4042 0.824524C34.0475 0.563904 34.7549 0.433594 35.5281 0.433594C36.2927 0.433594 36.9984 0.563904 37.6457 0.824524C38.2695 1.07077 38.8374 1.43994 39.3155 1.91006C39.783 2.37429 40.1536 2.92658 40.4061 3.53497C40.6668 4.15593 40.7966 4.82561 40.7966 5.54515C40.7966 6.26469 40.6663 6.9355 40.4055 7.55646C40.1532 8.16445 39.7827 8.71637 39.3155 9.18023C38.8378 9.65089 38.2698 10.0201 37.6457 10.2658C36.9984 10.5264 36.2927 10.6567 35.5281 10.6567C34.7549 10.6567 34.0475 10.5264 33.4042 10.2658C32.7838 10.02 32.2199 9.65069 31.7468 9.18023C31.2827 8.71488 30.9145 8.163 30.6631 7.55589C30.4023 6.9355 30.272 6.26469 30.272 5.54458" fill="#374146"/>
<path fill-rule="evenodd" clip-rule="evenodd" d="M20.9832 37.59V41.2166H18.513V37.59H15.4941V35.1045H24.0021V37.59H20.9832Z" fill="#374146"/>
<path fill-rule="evenodd" clip-rule="evenodd" d="M18.5121 34.0491H20.9823V31.5319H18.5121V34.0491ZM7.67058 19.3541C7.09923 18.6431 6.39354 18.2879 5.55295 18.2879C5.21051 18.2845 4.87093 18.3505 4.55464 18.4817C4.23835 18.613 3.95189 18.8068 3.71249 19.0516C3.48577 19.2873 3.30779 19.5689 3.17799 19.8935C3.04572 20.2286 2.97914 20.586 2.98187 20.9462C2.98187 21.332 3.04762 21.6872 3.17799 22.013C3.30835 22.3388 3.4886 22.6209 3.71986 22.8606C3.95112 23.1003 4.2215 23.2901 4.53211 23.426C4.85012 23.5644 5.19366 23.6345 5.54048 23.6317C6.33006 23.6317 7.04028 23.2901 7.67058 22.604V25.5841L7.41891 25.6736C7.07412 25.8007 6.72016 25.9015 6.3601 25.975C6.04033 26.0385 5.71515 26.0707 5.38914 26.0713C4.74204 26.0731 4.10123 25.9444 3.50504 25.6929C2.91092 25.445 2.3713 25.0829 1.91682 24.6272C1.45072 24.1568 1.0768 23.6033 0.814359 22.9954C0.537186 22.3666 0.398315 21.6793 0.398315 20.9343C0.398315 20.1887 0.534351 19.5065 0.807557 18.8856C1.06662 18.2849 1.439 17.7398 1.90435 17.2799C2.83807 16.3634 4.09404 15.8492 5.40274 15.8477C5.78024 15.8477 6.15208 15.8879 6.51767 15.9695C6.8827 16.0511 7.26757 16.1774 7.67058 16.3491V19.3541V19.3541ZM17.9634 19.855H21.5304V16.1173H24.0006V25.8016H21.5304V21.8079H17.964V25.8022H15.4938V16.1168H17.964L17.9634 19.855ZM36.644 22.2057L35.5347 18.9808L34.4255 22.2057H36.644V22.2057ZM37.2998 24.1195H33.7697L33.2034 25.8022H30.5694L34.1863 16.1168H36.8843L40.5006 25.8022H37.8666L37.2998 24.1195ZM2.55392 35.8604H3.01984C3.50674 35.8604 3.88141 35.7573 4.14214 35.5517C4.40231 35.3454 4.53211 35.0508 4.53211 34.6656C4.53211 34.2803 4.40174 33.9846 4.14214 33.7795C3.88141 33.5738 3.50674 33.4707 3.01984 33.4707H2.55392V35.8604V35.8604ZM7.98573 41.2168H4.90961L2.55335 37.4916V41.2168H0.0820312V31.5313H3.92675C4.45616 31.5313 4.91868 31.6106 5.31375 31.7687C5.70826 31.9274 6.03361 32.1438 6.28924 32.4174C6.54571 32.6914 6.74343 33.015 6.87023 33.3681C7.00186 33.7394 7.06784 34.1306 7.06522 34.5245C7.06522 35.261 6.89064 35.8576 6.54205 36.316C6.19345 36.7749 5.67878 37.0848 4.99804 37.248L7.98516 41.2168H7.98573ZM34.2934 36.5664L30.8268 31.5313H33.7765L35.5415 34.1772L37.293 31.5313H40.2427L36.7636 36.567V41.2168H34.2934V36.5664Z" fill="white"/>
</svg>
